<?xml version="1.0" encoding="UTF-8" standalone="no"?>
<!DOCTYPE svg PUBLIC "-//W3C//DTD SVG 1.1//EN"
"http://www.w3.org/Graphics/SVG/1.1/DTD/svg11.dtd">
<svg viewBox="0 0 909 1286" version="1.1" xmlns="http://www.w3.org/2000/svg" xmlns:xlink="http://www.w3.org/1999/xlink">
<defs>
<clipPath id="c0_11"><path d="M-.2 1286.6V-.2h910V1286.6Z"/></clipPath>
<clipPath id="c1_11"><path d="M822.8 58.2c-10.7 0 -19.4 -8.7 -19.4 -19.5c0 -10.7 8.7 -19.5 19.4 -19.5c10.8 0 19.5 8.8 19.5 19.5c0 10.8 -8.7 19.5 -19.5 19.5Z"/></clipPath>
<clipPath id="c2_11"><path d="M306.5 478.4V114.3H854.3V478.4Z"/></clipPath>
<clipPath id="c3_11"><path d="M306.5 1027.1V788.7H854.3v238.4Z"/></clipPath>
<style type="text/css"><![CDATA[
.g0_11{
fill: none;
stroke: #A4A4A4;
stroke-width: 1.145;
stroke-miterlimit: 10;
}
.g1_11{
fill: #FF0;
}
.g2_11{
fill: #000;
}
.g3_11{
fill: #FFF;
fill-opacity: 0.5;
}
.g4_11{
fill: none;
stroke: #3D4B5F;
stroke-width: 1.527;
stroke-miterlimit: 10;
}
.g5_11{
fill: #C55A11;
}
]]></style>
</defs>
<g clip-path="url(#c0_11)">
<image preserveAspectRatio="none" x="682" y="25" width="126" height="32" xlink:href="img/1.png"/>
<image preserveAspectRatio="none" x="800" y="16" width="51" height="51" xlink:href="img/2.png"/>
</g>
<image clip-path="url(#c1_11)" preserveAspectRatio="none" x="803" y="16" width="39" height="51" xlink:href="img/3.jpg"/>
<path d="M908.3 1255.2H861.7v-17.6H815.1m-814 17.6H788.8v-17.6h26.3" class="g0_11"/>
<path clip-path="url(#c2_11)" fill-rule="evenodd" d="M314.7 135.1H516.2V114.6H314.7v20.5Z" class="g1_11"/>
<path fill-rule="evenodd" d="M55 114.6h.7v-.7H55v.7Z" class="g2_11"/>
<path fill-rule="evenodd" d="M55 114.6h.7v-.7H55v.7Z" class="g2_11"/>
<path fill-rule="evenodd" d="M55.7 114.6H306.1v-.7H55.7v.7Z" class="g2_11"/>
<path fill-rule="evenodd" d="M306.1 114.6h.7v-.7h-.7v.7Z" class="g2_11"/>
<path fill-rule="evenodd" d="M306.8 114.6H854v-.7H306.8v.7Z" class="g2_11"/>
<path fill-rule="evenodd" d="M854 114.6h.7v-.7H854v.7Z" class="g2_11"/>
<path fill-rule="evenodd" d="M854 114.6h.7v-.7H854v.7Z" class="g2_11"/>
<path fill-rule="evenodd" d="M55 478h.7V114.6H55V478Z" class="g2_11"/>
<path fill-rule="evenodd" d="M306.1 478h.7V114.6h-.7V478Z" class="g2_11"/>
<path fill-rule="evenodd" d="M854 478h.7V114.6H854V478Z" class="g2_11"/>
<path fill-rule="evenodd" d="M418.3 529.7H530.1v-17H418.3v17Z" class="g1_11"/>
<path fill-rule="evenodd" d="M55 478.8h.7V478H55v.8Z" class="g2_11"/>
<path fill-rule="evenodd" d="M55.7 478.8H306.1V478H55.7v.8Z" class="g2_11"/>
<path fill-rule="evenodd" d="M306.1 478.8h.7V478h-.7v.8Z" class="g2_11"/>
<path fill-rule="evenodd" d="M306.8 478.8H854V478H306.8v.8Z" class="g2_11"/>
<path fill-rule="evenodd" d="M854 478.8h.7V478H854v.8Z" class="g2_11"/>
<path fill-rule="evenodd" d="M55 788.3h.7V478.8H55V788.3Z" class="g2_11"/>
<path fill-rule="evenodd" d="M306.1 788.3h.7V478.8h-.7V788.3Z" class="g2_11"/>
<path fill-rule="evenodd" d="M854 788.3h.7V478.8H854V788.3Z" class="g2_11"/>
<path clip-path="url(#c3_11)" fill-rule="evenodd" d="M314.7 805.9H474.2V789H314.7v16.9Z" class="g1_11"/>
<path fill-rule="evenodd" d="M55 789h.7v-.7H55v.7Z" class="g2_11"/>
<path fill-rule="evenodd" d="M55.7 789H306.1v-.7H55.7v.7Z" class="g2_11"/>
<path fill-rule="evenodd" d="M306.1 789h.7v-.7h-.7v.7Z" class="g2_11"/>
<path fill-rule="evenodd" d="M306.8 789H854v-.7H306.8v.7Z" class="g2_11"/>
<path fill-rule="evenodd" d="M854 789h.7v-.7H854v.7Z" class="g2_11"/>
<path fill-rule="evenodd" d="M55 1026.8h.7V789H55v237.8Z" class="g2_11"/>
<path fill-rule="evenodd" d="M306.1 1026.8h.7V789h-.7v237.8Z" class="g2_11"/>
<path fill-rule="evenodd" d="M854 1026.8h.7V789H854v237.8Z" class="g2_11"/>
<path fill-rule="evenodd" d="M441 1109.7H561.1v-20.5H441v20.5Z" class="g1_11"/>
<path fill-rule="evenodd" d="M55 1027.6h.7v-.8H55v.8Z" class="g2_11"/>
<path fill-rule="evenodd" d="M55.7 1027.6H306.1v-.8H55.7v.8Z" class="g2_11"/>
<path fill-rule="evenodd" d="M306.1 1027.6h.7v-.8h-.7v.8Z" class="g2_11"/>
<path fill-rule="evenodd" d="M306.8 1027.6H854v-.8H306.8v.8Z" class="g2_11"/>
<path fill-rule="evenodd" d="M854 1027.6h.7v-.8H854v.8Z" class="g2_11"/>
<path fill-rule="evenodd" d="M55 1208.9h.7V1027.6H55v181.3Z" class="g2_11"/>
<path fill-rule="evenodd" d="M55 1209.6h.7v-.7H55v.7Z" class="g2_11"/>
<path fill-rule="evenodd" d="M55 1209.6h.7v-.7H55v.7Z" class="g2_11"/>
<path fill-rule="evenodd" d="M55.7 1209.6H306.1v-.7H55.7v.7Z" class="g2_11"/>
<path fill-rule="evenodd" d="M306.1 1208.9h.7V1027.6h-.7v181.3Z" class="g2_11"/>
<path fill-rule="evenodd" d="M306.1 1209.6h.7v-.7h-.7v.7Z" class="g2_11"/>
<path fill-rule="evenodd" d="M306.8 1209.6H854v-.7H306.8v.7Z" class="g2_11"/>
<path fill-rule="evenodd" d="M854 1208.9h.7V1027.6H854v181.3Z" class="g2_11"/>
<path fill-rule="evenodd" d="M854 1209.6h.7v-.7H854v.7Z" class="g2_11"/>
<path fill-rule="evenodd" d="M854 1209.6h.7v-.7H854v.7Z" class="g2_11"/>
<path fill-rule="evenodd" d="M532.9 348.5c0 -26.1 21.2 -47.3 47.3 -47.3c26.2 0 47.4 21.2 47.4 47.3c0 26.1 -21.2 47.3 -47.4 47.3c-26.1 0 -47.3 -21.2 -47.3 -47.3Z" class="g3_11"/>
<path d="M532.9 348.5c0 -26.1 21.2 -47.3 47.3 -47.3c26.2 0 47.4 21.2 47.4 47.3c0 26.1 -21.2 47.3 -47.4 47.3c-26.1 0 -47.3 -21.2 -47.3 -47.3Z" class="g4_11"/>
<path fill-rule="evenodd" d="M567.1 407.6c0 -26.1 21.2 -47.3 47.3 -47.3c26.1 0 47.3 21.2 47.3 47.3c0 26.2 -21.2 47.3 -47.3 47.3c-26.1 0 -47.3 -21.1 -47.3 -47.3Z" class="g3_11"/>
<path d="M567.1 407.6c0 -26.1 21.2 -47.3 47.3 -47.3c26.1 0 47.3 21.2 47.3 47.3c0 26.2 -21.2 47.3 -47.3 47.3c-26.1 0 -47.3 -21.1 -47.3 -47.3Z" class="g4_11"/>
<path fill-rule="evenodd" d="M498.8 407.6c0 -26.1 21.2 -47.3 47.3 -47.3c26.1 0 47.3 21.2 47.3 47.3c0 26.2 -21.2 47.3 -47.3 47.3c-26.1 0 -47.3 -21.1 -47.3 -47.3Z" class="g3_11"/>
<path d="M498.8 407.6c0 -26.1 21.2 -47.3 47.3 -47.3c26.1 0 47.3 21.2 47.3 47.3c0 26.2 -21.2 47.3 -47.3 47.3c-26.1 0 -47.3 -21.1 -47.3 -47.3Z" class="g4_11"/>
<path fill-rule="evenodd" d="M616.2 359.7l10.4 1.1l-1.8 5.7c-6.5 15.5 -20.4 27.2 -37.3 30.6h-.3l-1.5 -5c-1.4 -3.1 -3 -6 -4.8 -8.8l-4.2 -5l2.8 -3.4c9.4 -9.3 22.4 -15.2 36.7 -15.2Z" class="g5_11"/>
<path fill-rule="evenodd" d="M545.7 360.6c14.5 0 27.6 5.9 37.1 15.3l2.2 2.7l-3.6 4.3c-1.9 2.7 -3.5 5.7 -4.8 8.8l-1.8 5.8h-.1C557.7 394 543.6 382.3 537 366.7l-1.6 -5l10.3 -1.1Z" class="g5_11"/>
<path fill-rule="evenodd" d="M569.6 387.5l11.7 1.1l11.3 -1.1l1.7 5.3c.8 3.8 1.2 7.7 1.2 11.7c0 12 -3.7 23.2 -9.9 32.4l-4 4.8L577 436.1c-6.3 -9.3 -9.9 -20.4 -9.9 -32.4c0 -4 .4 -8 1.1 -11.7l1.4 -4.5Z" class="g5_11"/>
<path fill-rule="evenodd" d="M580.3 377.3l3.8 4.7c1.7 2.6 3.2 5.3 4.4 8.2l1.5 4.6l-9.4 1l-9.6 -1l1.7 -5.3c1.2 -2.9 2.6 -5.6 4.4 -8.2l3.2 -4Z" class="g5_11"/>
</svg>