<?xml version="1.0" encoding="UTF-8" standalone="no"?>
<!DOCTYPE svg PUBLIC "-//W3C//DTD SVG 1.1//EN"
"http://www.w3.org/Graphics/SVG/1.1/DTD/svg11.dtd">
<svg viewBox="0 0 909 1286" version="1.1" xmlns="http://www.w3.org/2000/svg" xmlns:xlink="http://www.w3.org/1999/xlink">
<defs>
<clipPath id="c0_7"><path d="M-.2 1286.6V-.2h910V1286.6Z"/></clipPath>
<clipPath id="c1_7"><path d="M822.8 58.2c-10.7 0 -19.4 -8.7 -19.4 -19.5c0 -10.7 8.7 -19.5 19.4 -19.5c10.8 0 19.5 8.8 19.5 19.5c0 10.8 -8.7 19.5 -19.5 19.5Z"/></clipPath>
<style type="text/css"><![CDATA[
.g0_7{
fill: none;
stroke: #A4A4A4;
stroke-width: 1.145;
stroke-miterlimit: 10;
}
.g1_7{
fill: #C55A11;
}
.g2_7{
fill: #000;
}
.g3_7{
fill: #FFF;
}
.g4_7{
fill: none;
stroke: #000;
stroke-width: 2.291;
stroke-miterlimit: 10;
}
.g5_7{
fill: none;
stroke: #000;
stroke-width: 1.527;
stroke-miterlimit: 10;
}
.g6_7{
fill: none;
stroke: #3D4B5F;
stroke-width: 1.527;
stroke-miterlimit: 10;
}
]]></style>
</defs>
<g clip-path="url(#c0_7)">
<image preserveAspectRatio="none" x="682" y="25" width="126" height="32" xlink:href="img/1.png"/>
<image preserveAspectRatio="none" x="800" y="16" width="51" height="51" xlink:href="img/2.png"/>
</g>
<image clip-path="url(#c1_7)" preserveAspectRatio="none" x="803" y="16" width="39" height="51" xlink:href="img/3.jpg"/>
<path d="M908.3 1255.2H861.7v-17.6H815.1m-814 17.6H788.8v-17.6h26.3" class="g0_7"/>
<path fill-rule="evenodd" d="M574.1 819.5l10.2 1l10 -1l1.5 4.7c.7 3.3 1 6.8 1 10.3c0 10.7 -3.2 20.5 -8.7 28.7l-3.5 4.2l-4 -4.9c-5.5 -8.2 -8.8 -18.1 -8.8 -28.7c0 -3.5 .4 -7 1.1 -10.3l1.2 -4Z" class="g1_7"/>
<path fill-rule="evenodd" d="M584 800.9l4.1 5c1.8 2.7 3.4 5.6 4.7 8.7l1.5 4.9l-10 1l-10.2 -1l1.8 -5.7c1.2 -3 2.8 -6 4.7 -8.7l3.4 -4.2Z" class="g1_7"/>
<path fill-rule="evenodd" d="M619.6 1089.3c26.9 0 48.6 21.8 48.6 48.7c0 26.8 -21.7 48.6 -48.6 48.6c-13.4 0 -25.6 -5.4 -34.4 -14.2l-2 -2.5l-2.7 3.2c-8.8 8.8 -20.9 14.2 -34.3 14.2c-26.9 0 -48.7 -21.8 -48.7 -48.7c0 -26.9 21.8 -48.7 48.7 -48.7c13.4 0 25.5 5.5 34.3 14.3l2.1 2.5l2.6 -3.2c8.8 -8.8 21 -14.2 34.4 -14.2Z" class="g1_7"/>
<path fill-rule="evenodd" d="M55 312.1h.7v-.8H55v.8Z" class="g2_7"/>
<path fill-rule="evenodd" d="M55 312.1h.7v-.8H55v.8Z" class="g2_7"/>
<path fill-rule="evenodd" d="M55.7 312.1H293v-.8H55.7v.8Z" class="g2_7"/>
<path fill-rule="evenodd" d="M293 312.1h.8v-.8H293v.8Z" class="g2_7"/>
<path fill-rule="evenodd" d="M293.8 312.1H854v-.8H293.8v.8Z" class="g2_7"/>
<path fill-rule="evenodd" d="M854 312.1h.7v-.8H854v.8Z" class="g2_7"/>
<path fill-rule="evenodd" d="M854 312.1h.7v-.8H854v.8Z" class="g2_7"/>
<path fill-rule="evenodd" d="M55 373.7h.7V312.1H55v61.6Z" class="g2_7"/>
<path fill-rule="evenodd" d="M293 373.7h.8V312.1H293v61.6Z" class="g2_7"/>
<path fill-rule="evenodd" d="M854 373.7h.7V312.1H854v61.6Z" class="g2_7"/>
<path fill-rule="evenodd" d="M55 374.4h.7v-.7H55v.7Z" class="g2_7"/>
<path fill-rule="evenodd" d="M293 374.4h.8v-.7H293v.7Z" class="g2_7"/>
<path fill-rule="evenodd" d="M293.8 374.4H854v-.7H293.8v.7Z" class="g2_7"/>
<path fill-rule="evenodd" d="M854 374.4h.7v-.7H854v.7Z" class="g2_7"/>
<path fill-rule="evenodd" d="M55 538.5h.7V374.4H55V538.5Z" class="g2_7"/>
<path fill-rule="evenodd" d="M293 538.5h.8V374.4H293V538.5Z" class="g2_7"/>
<path fill-rule="evenodd" d="M854 538.5h.7V374.4H854V538.5Z" class="g2_7"/>
<path fill-rule="evenodd" d="M55 539.3h.7v-.8H55v.8Z" class="g2_7"/>
<path fill-rule="evenodd" d="M55.7 539.3H293v-.8H55.7v.8Z" class="g2_7"/>
<path fill-rule="evenodd" d="M293 539.3h.8v-.8H293v.8Z" class="g2_7"/>
<path fill-rule="evenodd" d="M293.8 539.3H854v-.8H293.8v.8Z" class="g2_7"/>
<path fill-rule="evenodd" d="M854 539.3h.7v-.8H854v.8Z" class="g2_7"/>
<path fill-rule="evenodd" d="M55 925.3h.7v-386H55v386Z" class="g2_7"/>
<path fill-rule="evenodd" d="M293 925.3h.8v-386H293v386Z" class="g2_7"/>
<path fill-rule="evenodd" d="M854 925.3h.7v-386H854v386Z" class="g2_7"/>
<path fill-rule="evenodd" d="M55 926h.7v-.7H55v.7Z" class="g2_7"/>
<path fill-rule="evenodd" d="M293 926h.8v-.7H293v.7Z" class="g2_7"/>
<path fill-rule="evenodd" d="M293.8 926H854v-.7H293.8v.7Z" class="g2_7"/>
<path fill-rule="evenodd" d="M854 926h.7v-.7H854v.7Z" class="g2_7"/>
<path fill-rule="evenodd" d="M55 1209.3h.7V926H55v283.3Z" class="g2_7"/>
<path fill-rule="evenodd" d="M55 1210h.7v-.7H55v.7Z" class="g2_7"/>
<path fill-rule="evenodd" d="M55 1210h.7v-.7H55v.7Z" class="g2_7"/>
<path fill-rule="evenodd" d="M55.7 1210H293v-.7H55.7v.7Z" class="g2_7"/>
<path fill-rule="evenodd" d="M293 1209.3h.8V926H293v283.3Z" class="g2_7"/>
<path fill-rule="evenodd" d="M293 1210h.8v-.7H293v.7Z" class="g2_7"/>
<path fill-rule="evenodd" d="M293.8 1210H854v-.7H293.8v.7Z" class="g2_7"/>
<path fill-rule="evenodd" d="M854 1209.3h.7V926H854v283.3Z" class="g2_7"/>
<path fill-rule="evenodd" d="M854 1210h.7v-.7H854v.7Z" class="g2_7"/>
<path fill-rule="evenodd" d="M854 1210h.7v-.7H854v.7Z" class="g2_7"/>
<path fill-rule="evenodd" d="M377.8 80.6c0 -2.8 2.2 -5.1 5 -5.1H524.3c2.8 0 5 2.3 5 5.1v40.6c0 2.8 -2.2 5.1 -5 5.1H382.8c-2.8 0 -5 -2.3 -5 -5.1Z" class="g3_7"/>
<path d="M377.8 80.6c0 -2.8 2.2 -5.1 5 -5.1H524.3c2.8 0 5 2.3 5 5.1v40.6c0 2.8 -2.2 5.1 -5 5.1H382.8c-2.8 0 -5 -2.3 -5 -5.1Z" class="g4_7"/>
<path d="M453.6 126.3v10.1H192v10.1" class="g5_7"/>
<path fill-rule="evenodd" d="M116.2 151.6c0 -2.8 2.2 -5.1 5.1 -5.1H262.7c2.8 0 5 2.3 5 5.1v40.6c0 2.8 -2.2 5.1 -5 5.1H121.3c-2.9 0 -5.1 -2.3 -5.1 -5.1Z" class="g3_7"/>
<path d="M116.2 151.6c0 -2.8 2.2 -5.1 5.1 -5.1H262.7c2.8 0 5 2.3 5 5.1v40.6c0 2.8 -2.2 5.1 -5 5.1H121.3c-2.9 0 -5.1 -2.3 -5.1 -5.1Z" class="g4_7"/>
<path d="M453.6 126.3v10.1H366.4v10.1" class="g5_7"/>
<path fill-rule="evenodd" d="M290.6 151.6c0 -2.8 2.2 -5.1 5 -5.1H437.1c2.8 0 5 2.3 5 5.1v40.6c0 2.8 -2.2 5.1 -5 5.1H295.6c-2.8 0 -5 -2.3 -5 -5.1Z" class="g3_7"/>
<path d="M290.6 151.6c0 -2.8 2.2 -5.1 5 -5.1H437.1c2.8 0 5 2.3 5 5.1v40.6c0 2.8 -2.2 5.1 -5 5.1H295.6c-2.8 0 -5 -2.3 -5 -5.1Z" class="g4_7"/>
<path d="M453.6 126.3v10.1h87.2v10.1" class="g5_7"/>
<path fill-rule="evenodd" d="M465 151.6c0 -2.8 2.2 -5.1 5.1 -5.1H611.5c2.8 0 5.1 2.3 5.1 5.1v40.6c0 2.8 -2.3 5.1 -5.1 5.1H470.1c-2.9 0 -5.1 -2.3 -5.1 -5.1Z" class="g3_7"/>
<path d="M465 151.6c0 -2.8 2.2 -5.1 5.1 -5.1H611.5c2.8 0 5.1 2.3 5.1 5.1v40.6c0 2.8 -2.3 5.1 -5.1 5.1H470.1c-2.9 0 -5.1 -2.3 -5.1 -5.1Z" class="g4_7"/>
<path d="M540.8 197.3v10.1H366.4v10.2" class="g5_7"/>
<path fill-rule="evenodd" d="M290.6 222.6c0 -2.8 2.2 -5 5 -5H437.1c2.8 0 5 2.2 5 5v40.6c0 2.8 -2.2 5.1 -5 5.1H295.6c-2.8 0 -5 -2.3 -5 -5.1Z" class="g3_7"/>
<path d="M290.6 222.6c0 -2.8 2.2 -5 5 -5H437.1c2.8 0 5 2.2 5 5v40.6c0 2.8 -2.2 5.1 -5 5.1H295.6c-2.8 0 -5 -2.3 -5 -5.1Z" class="g4_7"/>
<path d="M540.8 197.3v20.3" class="g5_7"/>
<path fill-rule="evenodd" d="M465 222.6c0 -2.8 2.2 -5 5.1 -5H611.5c2.8 0 5.1 2.2 5.1 5v40.6c0 2.8 -2.3 5.1 -5.1 5.1H470.1c-2.9 0 -5.1 -2.3 -5.1 -5.1Z" class="g3_7"/>
<path d="M465 222.6c0 -2.8 2.2 -5 5.1 -5H611.5c2.8 0 5.1 2.2 5.1 5v40.6c0 2.8 -2.3 5.1 -5.1 5.1H470.1c-2.9 0 -5.1 -2.3 -5.1 -5.1Z" class="g4_7"/>
<path d="M540.8 197.3v10.1H715.2v10.2" class="g5_7"/>
<path fill-rule="evenodd" d="M639.4 222.6c0 -2.8 2.2 -5 5 -5H785.9c2.8 0 5 2.2 5 5v40.6c0 2.8 -2.2 5.1 -5 5.1H644.4c-2.8 0 -5 -2.3 -5 -5.1Z" class="g3_7"/>
<path d="M639.4 222.6c0 -2.8 2.2 -5 5 -5H785.9c2.8 0 5 2.2 5 5v40.6c0 2.8 -2.2 5.1 -5 5.1H644.4c-2.8 0 -5 -2.3 -5 -5.1Z" class="g4_7"/>
<path d="M453.6 126.3v10.1H715.2v10.1" class="g5_7"/>
<path fill-rule="evenodd" d="M639.4 151.6c0 -2.8 2.2 -5.1 5 -5.1H785.9c2.8 0 5 2.3 5 5.1v40.6c0 2.8 -2.2 5.1 -5 5.1H644.4c-2.8 0 -5 -2.3 -5 -5.1Z" class="g3_7"/>
<path d="M639.4 151.6c0 -2.8 2.2 -5.1 5 -5.1H785.9c2.8 0 5 2.3 5 5.1v40.6c0 2.8 -2.2 5.1 -5 5.1H644.4c-2.8 0 -5 -2.3 -5 -5.1Z" class="g4_7"/>
<path d="M500.9 833.9c0 -26.6 21.6 -48.2 48.2 -48.2c26.6 0 48.1 21.6 48.1 48.2c0 26.6 -21.5 48.2 -48.1 48.2c-26.6 0 -48.2 -21.6 -48.2 -48.2Zm69.4 0c0 -26.6 21.6 -48.2 48.2 -48.2c26.6 0 48.1 21.6 48.1 48.2c0 26.6 -21.5 48.2 -48.1 48.2c-26.6 0 -48.2 -21.6 -48.2 -48.2Zm-70 304.8c0 -26.8 21.7 -48.5 48.5 -48.5c26.8 0 48.5 21.7 48.5 48.5c0 26.8 -21.7 48.5 -48.5 48.5c-26.8 0 -48.5 -21.7 -48.5 -48.5Zm69.9 0c0 -26.8 21.7 -48.5 48.5 -48.5c26.8 0 48.5 21.7 48.5 48.5c0 26.8 -21.7 48.5 -48.5 48.5c-26.8 0 -48.5 -21.7 -48.5 -48.5Z" class="g6_7"/>
</svg>