<?xml version="1.0" encoding="UTF-8" standalone="no"?>
<!DOCTYPE svg PUBLIC "-//W3C//DTD SVG 1.1//EN"
"http://www.w3.org/Graphics/SVG/1.1/DTD/svg11.dtd">
<svg viewBox="0 0 909 1286" version="1.1" xmlns="http://www.w3.org/2000/svg" xmlns:xlink="http://www.w3.org/1999/xlink">
<defs>
<clipPath id="c0_6"><path d="M-.2 1286.6V-.2h910V1286.6Z"/></clipPath>
<clipPath id="c1_6"><path d="M822.8 58.2c-10.7 0 -19.4 -8.7 -19.4 -19.5c0 -10.7 8.7 -19.5 19.4 -19.5c10.8 0 19.5 8.8 19.5 19.5c0 10.8 -8.7 19.5 -19.5 19.5Z"/></clipPath>
<clipPath id="c2_6"><path d="M302.1 411.3V313.7H506.4v97.6Z"/></clipPath>
<clipPath id="c3_6"><path d="M302.1 651.9V548.4H462.9V651.9Z"/></clipPath>
<style type="text/css"><![CDATA[
.g0_6{
fill: none;
stroke: #A4A4A4;
stroke-width: 1.145;
stroke-miterlimit: 10;
}
.g1_6{
fill: #FF0;
}
.g2_6{
fill: #000;
}
]]></style>
</defs>
<g clip-path="url(#c0_6)">
<image preserveAspectRatio="none" x="682" y="25" width="126" height="32" xlink:href="img/1.png"/>
<image preserveAspectRatio="none" x="800" y="16" width="51" height="51" xlink:href="img/2.png"/>
</g>
<image clip-path="url(#c1_6)" preserveAspectRatio="none" x="803" y="16" width="39" height="51" xlink:href="img/3.jpg"/>
<path d="M908.3 1255.2H861.7v-17.6H815.1m-814 17.6H788.8v-17.6h26.3" class="g0_6"/>
<path fill-rule="evenodd" d="M478.2 115.7H681.4V95.9H478.2v19.8Z" class="g1_6"/>
<path fill-rule="evenodd" d="M55 76.3h.7v-.8H55v.8Z" class="g2_6"/>
<path fill-rule="evenodd" d="M55 76.3h.7v-.8H55v.8Z" class="g2_6"/>
<path fill-rule="evenodd" d="M55.7 76.3H294v-.8H55.7v.8Z" class="g2_6"/>
<path fill-rule="evenodd" d="M294 76.3h.7v-.8H294v.8Z" class="g2_6"/>
<path fill-rule="evenodd" d="M294.7 76.3H856.2v-.8H294.7v.8Z" class="g2_6"/>
<path fill-rule="evenodd" d="M856.2 76.3h.7v-.8h-.7v.8Z" class="g2_6"/>
<path fill-rule="evenodd" d="M856.2 76.3h.7v-.8h-.7v.8Z" class="g2_6"/>
<path fill-rule="evenodd" d="M55 136.2h.7V76.3H55v59.9Z" class="g2_6"/>
<path fill-rule="evenodd" d="M294 136.2h.7V76.3H294v59.9Z" class="g2_6"/>
<path fill-rule="evenodd" d="M856.2 136.2h.7V76.3h-.7v59.9Z" class="g2_6"/>
<path fill-rule="evenodd" d="M55 137h.7v-.8H55v.8Z" class="g2_6"/>
<path fill-rule="evenodd" d="M55.7 137H294v-.8H55.7v.8Z" class="g2_6"/>
<path fill-rule="evenodd" d="M294 137h.7v-.8H294v.8Z" class="g2_6"/>
<path fill-rule="evenodd" d="M294.7 137H856.2v-.8H294.7v.8Z" class="g2_6"/>
<path fill-rule="evenodd" d="M856.2 137h.7v-.8h-.7v.8Z" class="g2_6"/>
<path fill-rule="evenodd" d="M55 888.9h.7V137H55V888.9Z" class="g2_6"/>
<path fill-rule="evenodd" d="M55 889.6h.7v-.7H55v.7Z" class="g2_6"/>
<path fill-rule="evenodd" d="M55 889.6h.7v-.7H55v.7Z" class="g2_6"/>
<path fill-rule="evenodd" d="M55.7 889.6H294v-.7H55.7v.7Z" class="g2_6"/>
<path fill-rule="evenodd" d="M294 888.9h.7V137H294V888.9Z" class="g2_6"/>
<path fill-rule="evenodd" d="M294 889.6h.7v-.7H294v.7Z" class="g2_6"/>
<path fill-rule="evenodd" d="M294.7 889.6H856.2v-.7H294.7v.7Z" class="g2_6"/>
<path fill-rule="evenodd" d="M856.2 888.9h.7V137h-.7V888.9Z" class="g2_6"/>
<path fill-rule="evenodd" d="M856.2 889.6h.7v-.7h-.7v.7Z" class="g2_6"/>
<path fill-rule="evenodd" d="M856.2 889.6h.7v-.7h-.7v.7Z" class="g2_6"/>
<image clip-path="url(#c2_6)" preserveAspectRatio="none" x="302" y="314" width="204" height="97" xlink:href="img/4.jpg"/>
<image clip-path="url(#c3_6)" preserveAspectRatio="none" x="302" y="549" width="161" height="103" xlink:href="img/5.jpg"/>
</svg>