<?xml version="1.0" encoding="UTF-8" standalone="no"?>
<!DOCTYPE svg PUBLIC "-//W3C//DTD SVG 1.1//EN"
"http://www.w3.org/Graphics/SVG/1.1/DTD/svg11.dtd">
<svg viewBox="0 0 909 1286" version="1.1" xmlns="http://www.w3.org/2000/svg" xmlns:xlink="http://www.w3.org/1999/xlink">
<defs>
<clipPath id="c0_10"><path d="M-.2 1286.6V-.2h910V1286.6Z"/></clipPath>
<clipPath id="c1_10"><path d="M822.8 58.2c-10.7 0 -19.4 -8.7 -19.4 -19.5c0 -10.7 8.7 -19.5 19.4 -19.5c10.8 0 19.5 8.8 19.5 19.5c0 10.8 -8.7 19.5 -19.5 19.5Z"/></clipPath>
<style type="text/css"><![CDATA[
.g0_10{
fill: none;
stroke: #A4A4A4;
stroke-width: 1.145;
stroke-miterlimit: 10;
}
.g1_10{
fill: #C55A11;
}
.g2_10{
fill: #000;
}
.g3_10{
fill: none;
stroke: #3D4B5F;
stroke-width: 1.527;
stroke-miterlimit: 10;
}
]]></style>
</defs>
<g clip-path="url(#c0_10)">
<image preserveAspectRatio="none" x="682" y="25" width="126" height="32" xlink:href="img/1.png"/>
<image preserveAspectRatio="none" x="800" y="16" width="51" height="51" xlink:href="img/2.png"/>
</g>
<image clip-path="url(#c1_10)" preserveAspectRatio="none" x="803" y="16" width="39" height="51" xlink:href="img/3.jpg"/>
<path d="M908.3 1255.2H861.7v-17.6H815.1m-814 17.6H788.8v-17.6h26.3" class="g0_10"/>
<path fill-rule="evenodd" d="M672.6 383.5c26.8 0 48.6 21.8 48.6 48.7c0 26.9 -21.8 48.7 -48.6 48.7c-13.5 0 -25.6 -5.5 -34.4 -14.3l-2.1 -2.5l-2.6 3.2c-8.8 8.8 -21 14.3 -34.4 14.3c-26.9 0 -48.6 -21.8 -48.6 -48.7c0 -26.9 21.7 -48.7 48.6 -48.7c13.4 0 25.6 5.4 34.4 14.2l2 2.5l2.7 -3.2c8.8 -8.8 20.9 -14.2 34.4 -14.2Z" class="g1_10"/>
<path fill-rule="evenodd" d="M627 620l10.3 1.1l10 -1.1l1.4 4.7c.7 3.4 1.1 6.8 1.1 10.4c0 10.6 -3.2 20.5 -8.8 28.6l-3.4 4.3l-4.1 -5c-5.5 -8.2 -8.7 -18 -8.7 -28.7c0 -3.5 .3 -6.9 1 -10.3l1.2 -4Z" class="g1_10"/>
<path fill-rule="evenodd" d="M637 601.4l4 5c1.9 2.7 3.5 5.6 4.7 8.7l1.6 4.9l-10 1.1L627 620l1.8 -5.6c1.3 -3.1 2.9 -6 4.7 -8.7l3.5 -4.3Z" class="g1_10"/>
<path fill-rule="evenodd" d="M600.6 870c12.8 0 24.5 5.5 32.9 14.3l2 2.2l-.5 .6c-6.6 8.4 -10.6 19.2 -10.6 30.9c0 11.8 4 22.6 10.6 31l1.1 1.2l-2.6 3c-8.4 8.8 -20.1 14.2 -32.9 14.2C574.8 967.4 554 945.6 554 918.7C554 891.8 574.8 870 600.6 870Z" class="g1_10"/>
<path fill-rule="evenodd" d="M55 116.6h.7v-.7H55v.7Z" class="g2_10"/>
<path fill-rule="evenodd" d="M55 116.6h.7v-.7H55v.7Z" class="g2_10"/>
<path fill-rule="evenodd" d="M55.7 116.6H345.8v-.7H55.7v.7Z" class="g2_10"/>
<path fill-rule="evenodd" d="M345.8 116.6h.8v-.7h-.8v.7Z" class="g2_10"/>
<path fill-rule="evenodd" d="M346.6 116.6H854v-.7H346.6v.7Z" class="g2_10"/>
<path fill-rule="evenodd" d="M854 116.6h.7v-.7H854v.7Z" class="g2_10"/>
<path fill-rule="evenodd" d="M854 116.6h.7v-.7H854v.7Z" class="g2_10"/>
<path fill-rule="evenodd" d="M55 301.4h.7V116.6H55V301.4Z" class="g2_10"/>
<path fill-rule="evenodd" d="M345.8 301.4h.8V116.6h-.8V301.4Z" class="g2_10"/>
<path fill-rule="evenodd" d="M854 301.4h.7V116.6H854V301.4Z" class="g2_10"/>
<path fill-rule="evenodd" d="M55 302.2h.7v-.8H55v.8Z" class="g2_10"/>
<path fill-rule="evenodd" d="M55.7 302.2H345.8v-.8H55.7v.8Z" class="g2_10"/>
<path fill-rule="evenodd" d="M345.8 302.2h.8v-.8h-.8v.8Z" class="g2_10"/>
<path fill-rule="evenodd" d="M346.6 302.2H854v-.8H346.6v.8Z" class="g2_10"/>
<path fill-rule="evenodd" d="M854 302.2h.7v-.8H854v.8Z" class="g2_10"/>
<path fill-rule="evenodd" d="M55 503.3h.7V302.2H55V503.3Z" class="g2_10"/>
<path fill-rule="evenodd" d="M345.8 503.3h.8V302.2h-.8V503.3Z" class="g2_10"/>
<path fill-rule="evenodd" d="M854 503.3h.7V302.2H854V503.3Z" class="g2_10"/>
<path fill-rule="evenodd" d="M55 504.1h.7v-.8H55v.8Z" class="g2_10"/>
<path fill-rule="evenodd" d="M55.7 504.1H345.8v-.8H55.7v.8Z" class="g2_10"/>
<path fill-rule="evenodd" d="M345.8 504.1h.8v-.8h-.8v.8Z" class="g2_10"/>
<path fill-rule="evenodd" d="M346.6 504.1H854v-.8H346.6v.8Z" class="g2_10"/>
<path fill-rule="evenodd" d="M854 504.1h.7v-.8H854v.8Z" class="g2_10"/>
<path fill-rule="evenodd" d="M55 705.2h.7V504.1H55V705.2Z" class="g2_10"/>
<path fill-rule="evenodd" d="M345.8 705.2h.8V504.1h-.8V705.2Z" class="g2_10"/>
<path fill-rule="evenodd" d="M854 705.2h.7V504.1H854V705.2Z" class="g2_10"/>
<path fill-rule="evenodd" d="M55 705.9h.7v-.7H55v.7Z" class="g2_10"/>
<path fill-rule="evenodd" d="M345.8 705.9h.8v-.7h-.8v.7Z" class="g2_10"/>
<path fill-rule="evenodd" d="M346.6 705.9H854v-.7H346.6v.7Z" class="g2_10"/>
<path fill-rule="evenodd" d="M854 705.9h.7v-.7H854v.7Z" class="g2_10"/>
<path fill-rule="evenodd" d="M55 787.7h.7V705.9H55v81.8Z" class="g2_10"/>
<path fill-rule="evenodd" d="M345.8 787.7h.8V705.9h-.8v81.8Z" class="g2_10"/>
<path fill-rule="evenodd" d="M854 787.7h.7V705.9H854v81.8Z" class="g2_10"/>
<path fill-rule="evenodd" d="M55 788.4h.7v-.7H55v.7Z" class="g2_10"/>
<path fill-rule="evenodd" d="M55.7 788.4H345.8v-.7H55.7v.7Z" class="g2_10"/>
<path fill-rule="evenodd" d="M345.8 788.4h.8v-.7h-.8v.7Z" class="g2_10"/>
<path fill-rule="evenodd" d="M346.6 788.4H854v-.7H346.6v.7Z" class="g2_10"/>
<path fill-rule="evenodd" d="M854 788.4h.7v-.7H854v.7Z" class="g2_10"/>
<path fill-rule="evenodd" d="M55 989.6h.7V788.5H55V989.6Z" class="g2_10"/>
<path fill-rule="evenodd" d="M345.8 989.6h.8V788.5h-.8V989.6Z" class="g2_10"/>
<path fill-rule="evenodd" d="M854 989.6h.7V788.5H854V989.6Z" class="g2_10"/>
<path fill-rule="evenodd" d="M55 990.3h.7v-.7H55v.7Z" class="g2_10"/>
<path fill-rule="evenodd" d="M345.8 990.3h.8v-.7h-.8v.7Z" class="g2_10"/>
<path fill-rule="evenodd" d="M346.6 990.3H854v-.7H346.6v.7Z" class="g2_10"/>
<path fill-rule="evenodd" d="M854 990.3h.7v-.7H854v.7Z" class="g2_10"/>
<path fill-rule="evenodd" d="M55 1134.1h.7V990.3H55v143.8Z" class="g2_10"/>
<path fill-rule="evenodd" d="M55 1134.8h.7v-.7H55v.7Z" class="g2_10"/>
<path fill-rule="evenodd" d="M55 1134.8h.7v-.7H55v.7Z" class="g2_10"/>
<path fill-rule="evenodd" d="M55.7 1134.8H345.8v-.7H55.7v.7Z" class="g2_10"/>
<path fill-rule="evenodd" d="M345.8 1134.1h.8V990.3h-.8v143.8Z" class="g2_10"/>
<path fill-rule="evenodd" d="M345.8 1134.8h.8v-.7h-.8v.7Z" class="g2_10"/>
<path fill-rule="evenodd" d="M346.6 1134.8H854v-.7H346.6v.7Z" class="g2_10"/>
<path fill-rule="evenodd" d="M854 1134.1h.7V990.3H854v143.8Z" class="g2_10"/>
<path fill-rule="evenodd" d="M854 1134.8h.7v-.7H854v.7Z" class="g2_10"/>
<path fill-rule="evenodd" d="M854 1134.8h.7v-.7H854v.7Z" class="g2_10"/>
<path d="M553.2 432.9c0 -26.8 21.7 -48.5 48.5 -48.5c26.8 0 48.6 21.7 48.6 48.5c0 26.8 -21.8 48.5 -48.6 48.5c-26.8 0 -48.5 -21.7 -48.5 -48.5Zm70 0c0 -26.8 21.7 -48.5 48.5 -48.5c26.8 0 48.5 21.7 48.5 48.5c0 26.8 -21.7 48.5 -48.5 48.5c-26.8 0 -48.5 -21.7 -48.5 -48.5ZM553.8 634.4c0 -26.6 21.6 -48.1 48.2 -48.1c26.6 0 48.1 21.5 48.1 48.1c0 26.6 -21.5 48.2 -48.1 48.2c-26.6 0 -48.2 -21.6 -48.2 -48.2Zm69.4 0c0 -26.6 21.6 -48.1 48.2 -48.1c26.6 0 48.2 21.5 48.2 48.1c0 26.6 -21.6 48.2 -48.2 48.2c-26.6 0 -48.2 -21.6 -48.2 -48.2ZM553.8 918.8c0 -26.6 21.6 -48.2 48.2 -48.2c26.6 0 48.1 21.6 48.1 48.2c0 26.6 -21.5 48.2 -48.1 48.2c-26.6 0 -48.2 -21.6 -48.2 -48.2Zm69.4 0c0 -26.6 21.6 -48.2 48.2 -48.2c26.6 0 48.2 21.6 48.2 48.2c0 26.6 -21.6 48.2 -48.2 48.2c-26.6 0 -48.2 -21.6 -48.2 -48.2Z" class="g3_10"/>
</svg>